<?xml version="1.0" standalone="no"?><!DOCTYPE svg PUBLIC "-//W3C//DTD SVG 1.1//EN" "http://www.w3.org/Graphics/SVG/1.1/DTD/svg11.dtd"><svg t="1565748920363" class="icon" viewBox="0 0 1024 1024" version="1.1" xmlns="http://www.w3.org/2000/svg" p-id="21970" xmlns:xlink="http://www.w3.org/1999/xlink" width="200" height="200"><defs><style type="text/css"></style></defs><path d="M750.933333 448L853.333333 512l-102.4 64L853.333333 640l-341.333333 213.333333-341.333333-213.333333 102.4-64L170.666667 512l102.4-64L170.666667 384l341.333333-213.333333 341.333333 213.333333-102.4 64z m-396.8 51.2l-21.333333 12.8 179.2 110.933333 179.2-110.933333-21.333333-12.8L512 597.333333l-157.866667-98.133333z m315.733334 128L512 725.333333l-157.866667-98.133333-21.333333 12.8 179.2 110.933333 179.2-110.933333-21.333333-12.8zM512 273.066667L332.8 384l179.2 110.933333L691.2 384 512 273.066667z" fill="currentColor" p-id="21971"></path></svg>
